<?xml version="1.0" encoding="UTF-8"?>
<svg width="24px" height="24px" viewBox="0 0 24 24" version="1.1" xmlns="http://www.w3.org/2000/svg" xmlns:xlink="http://www.w3.org/1999/xlink">
    <!-- Generator: Sketch 60 (88103) - https://sketch.com -->
    <title>icon/业务助手</title>
    <desc>Created with Sketch.</desc>
    <g id="页面-1" stroke="none" stroke-width="1" fill="none" fill-rule="evenodd">
        <g id="14颜色布局等建议" transform="translate(-191.000000, -1568.000000)" fill-rule="nonzero">
            <g id="icon/业务助手" transform="translate(191.000000, 1568.000000)">
                <path d="M12,0 C18.627417,0 24,5.372583 24,12 C24,18.627417 18.627417,24 12,24 C5.372583,24 0,18.627417 0,12 C0,5.372583 5.372583,0 12,0 Z" id="路径" fill="#04D1FF"></path>
                <path d="M12,0.5 C5.64872538,0.5 0.5,5.64872538 0.5,12 C0.5,18.3512746 5.64872538,23.5 12,23.5 C18.3512746,23.5 23.5,18.3512746 23.5,12 C23.5,5.64872538 18.3512746,0.5 12,0.5 Z" id="路径" fill="#183075"></path>
                <path d="M19.3579958,14.3476349 C19.307597,12.0678898 18.3248213,10.465716 16.7264608,9.48464918 L18.4904172,5.90975475 C18.8154437,5.88640581 19.0839407,5.65194123 19.1450215,5.33812265 C19.2061023,5.02430406 19.0445335,4.70939708 18.7511116,4.5703694 C18.4576897,4.43134171 18.1055934,4.5028665 17.8926897,4.74474911 C17.6797859,4.98663172 17.6591724,5.3385472 17.8424332,5.60273026 L16.0892766,9.14939254 C14.7936196,8.58809309 13.3870328,8.31569067 11.9709783,8.35183466 C10.5493646,8.32152206 9.13875221,8.60242883 7.84188036,9.17409567 L6.07072412,5.64507847 C6.25233655,5.38000319 6.22978396,5.02841582 6.01572952,4.78773081 C5.80167507,4.54704581 5.44944534,4.47722411 5.15681545,4.61747023 C4.86418556,4.75771635 4.70405728,5.0730913 4.7663418,5.38651373 C4.82862632,5.69993615 5.09780693,5.9333243 5.42274013,5.95563198 L7.22269565,9.53052641 C5.63513488,10.5115932 4.66675881,12.1243541 4.62355989,14.3970411 L3.71998221,14.3970411 C3.32234702,14.3970411 3,14.7130401 3,15.1028446 L3,16.8673532 C3,17.2571576 3.32234702,17.5731566 3.71998221,17.5731566 L4.61636006,17.5731566 L4.61636006,18.4412948 C4.61636006,18.7220809 4.73014263,18.9913667 4.93267692,19.1899124 C5.1352112,19.3884582 5.40990664,19.5 5.69633338,19.5 L18.296022,19.4752969 C18.8924748,19.4752969 19.3759953,19.0012984 19.3759953,18.4165917 L19.3759953,17.5484535 L20.279573,17.5484535 C20.6772082,17.5484535 20.9995552,17.2324545 20.9995552,16.84265 L20.9995552,15.0781415 C21.0064844,14.8848564 20.9322012,14.6972516 20.7940639,14.5591664 C20.6559267,14.4210812 20.4660389,14.3446145 20.2687733,14.3476349 L19.3579958,14.3476349 Z" id="路径" fill="#FFFFFF"></path>
                <path d="M9.58430675,5.1182659 L10.0185373,4.81302968 L10.7955815,5.78757909 C10.9032884,5.92297828 11.0894288,6.00479272 11.2892331,6.00455475 L11.3440833,6.00455475 C11.5639242,5.98749169 11.753087,5.87227954 11.833164,5.70667309 L12.2353987,4.47101799 L12.646775,5.63312219 L12.646775,5.6662201 C12.7263853,5.82520701 12.9063976,5.93727939 13.1176585,5.95938352 C13.3289194,5.98148765 13.5385712,5.91018566 13.6660742,5.77286891 L14.2557136,4.87922548 L14.5116811,5.08149045 C14.6211956,5.1686499 14.769015,5.21754348 14.9230574,5.21755962 L16.0429152,5.21755962 C16.2953562,5.21755962 16.5,5.05291033 16.5,4.84980513 C16.5,4.64669993 16.2953562,4.48205063 16.0429152,4.48205063 L15.0693245,4.48205063 L14.6122397,4.11429613 C14.4900513,4.01847416 14.3222621,3.96993679 14.1522104,3.98122073 C13.9821586,3.99250466 13.8265203,4.06250336 13.7254952,4.17313685 L13.309548,4.79831948 L12.7839005,3.29788115 C12.6957371,3.11819563 12.480074,3.00008877 12.2399695,3 C11.9998651,3.00008876 11.7842019,3.11819563 11.6960386,3.29788115 L11.1795328,4.88658058 L10.6036059,4.15107158 C10.5144126,4.03799988 10.3699743,3.96052653 10.2059421,3.93777398 C10.0418105,3.92098881 9.87636204,3.95959189 9.74885729,4.04442277 L9.12265109,4.48572817 L7.95708482,4.48572817 C7.70464384,4.48572817 7.5,4.65037747 7.5,4.85348267 C7.5,5.05658787 7.70464384,5.22123717 7.95708482,5.22123717 L9.24149315,5.22123717 C9.36619661,5.21605481 9.48589165,5.1801019 9.58430675,5.1182659 L9.58430675,5.1182659 Z M9,12 L15,12 C15.8284271,12 16.5,12.6715729 16.5,13.5 L16.5,15 C16.5,15.8284271 15.8284271,16.5 15,16.5 L9,16.5 C8.17157288,16.5 7.5,15.8284271 7.5,15 L7.5,13.5 C7.5,12.6715729 8.17157288,12 9,12 Z" id="形状" fill="#04D1FF"></path>
            </g>
        </g>
    </g>
</svg>